<svg width="24" height="17" viewBox="0 0 24 17" fill="none" xmlns="http://www.w3.org/2000/svg">
<path d="M22 9.75C22.6904 9.75 23.25 9.19035 23.25 8.5C23.25 7.80964 22.6904 7.25 22 7.25L22 9.75ZM2 8.5L1.16702 7.56799C0.901681 7.80514 0.750001 8.14413 0.750001 8.5C0.750001 8.85587 0.901681 9.19486 1.16702 9.43201L2 8.5ZM8.43975 15.932C8.95448 16.3921 9.74469 16.3477 10.2047 15.833C10.6648 15.3182 10.6204 14.528 10.1057 14.068L8.43975 15.932ZM10.1057 2.93201C10.6204 2.47196 10.6648 1.68175 10.2047 1.16702C9.74469 0.652283 8.95448 0.607948 8.43974 1.06799L10.1057 2.93201ZM22 7.25L2 7.25L2 9.75L22 9.75L22 7.25ZM1.16702 9.43201L8.43975 15.932L10.1057 14.068L2.83298 7.56799L1.16702 9.43201ZM2.83298 9.43201L10.1057 2.93201L8.43974 1.06799L1.16702 7.56799L2.83298 9.43201Z" fill="#4F4F4F"/>
</svg>
