<svg width="20" height="20" viewBox="0 0 20 20" fill="none" xmlns="http://www.w3.org/2000/svg">
<path d="M10 0.625C8.49987 0.625 7.06118 1.22092 6.00043 2.28168C4.93967 3.34243 4.34375 4.78112 4.34375 6.28125C4.34375 11.375 10 16.375 10 16.375C10 16.375 15.6562 11.375 15.6562 6.28125C15.6562 4.78112 15.0603 3.34243 13.9996 2.28168C12.9388 1.22092 11.5001 0.625 10 0.625ZM10 8.125C9.62916 8.125 9.26665 8.01503 8.95831 7.80901C8.64996 7.60298 8.40964 7.31014 8.26773 6.96753C8.12581 6.62492 8.08868 6.24792 8.16103 5.88421C8.23337 5.52049 8.41195 5.1864 8.67417 4.92417C8.9364 4.66195 9.27049 4.48338 9.63421 4.41103C9.99792 4.33868 10.3749 4.37581 10.7175 4.51773C11.0601 4.65964 11.353 4.89996 11.559 5.20831C11.765 5.51665 11.875 5.87916 11.875 6.25C11.875 6.74728 11.6775 7.22419 11.3258 7.57583C10.9742 7.92746 10.4973 8.125 10 8.125Z" fill="#004ED0"/>
<path d="M16.25 14.375H13.5312C12.7198 15.4281 11.8207 16.4108 10.8438 17.3125L10 18.0313L9.1875 17.3125C8.19968 16.4121 7.29016 15.4294 6.46875 14.375H3.75L1.25 19.375H18.75L16.25 14.375Z" fill="#004ED0"/>
</svg>
